# xmcd CD database file
#
# Track frame offsets:
#	150
#	10529
#	22743
#	34705
#	50984
#	65094
#	80116
#	93763
#	106933
#	118801
#	130588
#	142234
#	154953
#	166995
#	181723
#	194293
#	206990
#	216212
#	226718
#	236202
#	249421
#	259863
#	270525
#	283932
#	292731
#	303101
#
# Disc length: 4183 seconds
#
# Revision: 0
# Processed by: cddbd v1.5.2PL0 Copyright (c) Steve Scherf et al.
# Submitted via: CDex 1.78
#
DISCID=7310551a
DTITLE=Ted Heath - Old English - Smooth 'n Swinging
DYEAR=1958
DGENRE=Jazz
TTITLE0=Lincolnshire poacher
TTITLE1=Greensleeves
TTITLE2=D'ye Ken John Peel
TTITLE3=Drink to me only with thine eyes
TTITLE4=There's a tavern in the town
TTITLE5=Barbara Allen
TTITLE6=Cherry ripe
TTITLE7=Sweet Polly Oliver
TTITLE8=London bridge is falling down
TTITLE9=Early one morning
TTITLE10=The lass of Richmond Hill
TTITLE11=Foggy foggy dew
TTITLE12=Lover come back to me
TTITLE13=Summertime
TTITLE14=How about you
TTITLE15=Don't get around much anymore
TTITLE16=Smooth'n swinging
TTITLE17=Don't be that way
TTITLE18=Taking a chance on love
TTITLE19=These foolish things
TTITLE20=Midnight sun
TTITLE21=A fine romance
TTITLE22=Night and day
TTITLE23=You're my everything
TTITLE24=You'd be so nice to come home
TTITLE25=9:20 Special
EXTD=YEAR: 1958
EXTT0=
EXTT1=
EXTT2=
EXTT3=
EXTT4=
EXTT5=
EXTT6=
EXTT7=
EXTT8=
EXTT9=
EXTT10=
EXTT11=
EXTT12=
EXTT13=
EXTT14=
EXTT15=
EXTT16=
EXTT17=
EXTT18=
EXTT19=
EXTT20=
EXTT21=
EXTT22=
EXTT23=
EXTT24=
EXTT25=
PLAYORDER=
